 
<svg width="140" height="43" viewBox="0 0 140 43" fill="none" xmlns="http://www.w3.org/2000/svg">
<path d="M17.49 32H13.17L12.93 23.09C12.91 22.65 12.9 22.05 12.9 21.29C12.9 20.29 12.93 19.32 12.99 18.38C13.05 17.42 13.12 16.42 13.2 15.38L10.86 28.46H7.14L4.59 15.38C4.81 17.68 4.92 19.75 4.92 21.59L4.89 23.18L4.74 32H0.51L1.68 11.21H6.75L9.06 24.65L11.25 11.21H16.32L17.49 32ZM29.9883 15.53C32.4083 15.53 34.2983 16.3 35.6583 17.84C37.0383 19.36 37.7283 21.41 37.7283 23.99C37.7283 26.67 37.0483 28.76 35.6883 30.26C34.3283 31.76 32.4283 32.51 29.9883 32.51C27.5483 32.51 25.6483 31.77 24.2883 30.29C22.9283 28.79 22.2483 26.7 22.2483 24.02C22.2483 22.32 22.5483 20.84 23.1483 19.58C23.7683 18.3 24.6583 17.31 25.8183 16.61C26.9983 15.89 28.3883 15.53 29.9883 15.53ZM29.9883 19.04C29.0083 19.04 28.2883 19.44 27.8283 20.24C27.3683 21.02 27.1383 22.28 27.1383 24.02C27.1383 25.78 27.3683 27.06 27.8283 27.86C28.2883 28.64 29.0083 29.03 29.9883 29.03C30.9683 29.03 31.6883 28.63 32.1483 27.83C32.6083 27.03 32.8383 25.75 32.8383 23.99C32.8383 22.27 32.6083 21.02 32.1483 20.24C31.6883 19.44 30.9683 19.04 29.9883 19.04ZM57.8766 32H53.4066V26.93C53.4066 24.43 53.6666 22.19 54.1866 20.21L48.9666 32H44.0766V16.07H48.5466V21.2C48.5466 23.62 48.2766 25.85 47.7366 27.89L52.9566 16.07H57.8766V32ZM50.9766 13.64C49.4366 13.64 48.2266 13.19 47.3466 12.29C46.4666 11.39 45.9566 10.29 45.8166 8.99L48.4266 8.54C48.5666 9.12 48.8566 9.57 49.2966 9.89C49.7366 10.21 50.2966 10.37 50.9766 10.37C51.6566 10.37 52.2166 10.21 52.6566 9.89C53.0966 9.57 53.3866 9.12 53.5266 8.54L56.1366 8.99C55.9966 10.29 55.4866 11.39 54.6066 12.29C53.7266 13.19 52.5166 13.64 50.9766 13.64Z" fill="#33D160"/>
<path d="M96.2627 32H92.1465L83.3281 21.1455V32H79.8271V10.584H83.3281V20.9551L92 10.584H95.8379L87.1953 20.9258L96.2627 32ZM116.108 23.8701C116.108 26.5166 115.43 28.582 114.072 30.0664C112.715 31.5508 110.825 32.293 108.403 32.293C106.89 32.293 105.552 31.9512 104.39 31.2676C103.228 30.584 102.334 29.6025 101.709 28.3232C101.084 27.0439 100.771 25.5596 100.771 23.8701C100.771 21.2432 101.445 19.1924 102.793 17.7178C104.141 16.2432 106.04 15.5059 108.491 15.5059C110.835 15.5059 112.69 16.2627 114.058 17.7764C115.425 19.2803 116.108 21.3115 116.108 23.8701ZM104.316 23.8701C104.316 27.6104 105.698 29.4805 108.462 29.4805C111.196 29.4805 112.563 27.6104 112.563 23.8701C112.563 20.1689 111.187 18.3184 108.433 18.3184C106.987 18.3184 105.938 18.7969 105.283 19.7539C104.639 20.7109 104.316 22.083 104.316 23.8701ZM138.62 37.7275H135.412V32H124.309V37.7275H121.13V29.334H122.448C123.601 27.6836 124.514 25.6914 125.188 23.3574C125.871 21.0137 126.276 18.4941 126.403 15.7988H136.247V29.334H138.62V37.7275ZM132.863 29.334V18.4355H129.377C129.191 20.4473 128.801 22.4297 128.205 24.3828C127.619 26.3359 126.901 27.9863 126.052 29.334H132.863Z" fill="white"/>
<path d="M70 43V3" stroke="white" stroke-width="3"/>
</svg>
